<svg xmlns="http://www.w3.org/2000/svg" xmlns:xlink="http://www.w3.org/1999/xlink" width="384" zoomAndPan="magnify" viewBox="0 0 288 143.999998" height="192" preserveAspectRatio="xMidYMid meet" version="1.0"><path fill="#3d3d3d" d="M 171.582031 42.882812 L 173.601562 107.25 C 174.15625 125.011719 189.023438 138.976562 206.78125 138.421875 L 380.980469 132.972656 C 398.742188 132.414062 412.710938 117.542969 412.15625 99.785156 L 410.136719 35.417969 C 409.582031 17.65625 394.714844 3.691406 376.957031 4.246094 L 202.757812 9.699219 C 184.996094 10.253906 171.027344 25.121094 171.582031 42.882812 Z M 206.957031 57.847656 C 206.679688 48.945312 213.679688 41.488281 222.578125 41.210938 L 359.140625 36.9375 C 368.042969 36.660156 375.492188 43.664062 375.769531 52.5625 L 376.78125 84.820312 C 377.058594 93.726562 370.058594 101.175781 361.160156 101.457031 L 224.597656 105.726562 C 215.695312 106.007812 208.246094 99.003906 207.96875 90.105469 Z M 206.957031 57.847656 " fill-opacity="1" fill-rule="evenodd"/><path fill="#ffffff" d="M 232.796875 20.824219 L 233.007812 27.527344 C 233.0625 29.382812 234.613281 30.835938 236.464844 30.777344 L 271.097656 29.691406 C 272.949219 29.636719 274.40625 28.089844 274.347656 26.234375 L 274.136719 19.527344 C 274.078125 17.679688 272.527344 16.226562 270.679688 16.28125 L 236.042969 17.363281 C 234.191406 17.425781 232.738281 18.972656 232.796875 20.824219 Z M 232.796875 20.824219 " fill-opacity="0.16" fill-rule="evenodd"/><path fill="#ffffff" d="M 210.792969 119.84375 L 211 126.554688 C 211.054688 128.402344 212.609375 129.855469 214.457031 129.804688 L 292.210938 127.367188 C 294.066406 127.3125 295.519531 125.757812 295.457031 123.910156 L 295.25 117.203125 C 295.195312 115.351562 293.644531 113.894531 291.792969 113.953125 L 214.039062 116.386719 C 212.183594 116.445312 210.730469 117.996094 210.792969 119.84375 Z M 210.792969 119.84375 " fill-opacity="0.16" fill-rule="evenodd"/><path fill="#ffffff" d="M 185.898438 105.875 L 192.605469 105.664062 C 194.453125 105.605469 195.910156 104.054688 195.851562 102.207031 L 194.09375 46.046875 C 194.039062 44.191406 192.484375 42.738281 190.636719 42.796875 L 183.929688 43.007812 C 182.082031 43.0625 180.625 44.609375 180.683594 46.464844 L 182.441406 102.625 C 182.5 104.476562 184.050781 105.933594 185.898438 105.875 Z M 185.898438 105.875 " fill-opacity="0.16" fill-rule="evenodd"/><path fill="#3d3d3d" d="M -127.453125 48.328125 L -124.105469 112.632812 C -123.179688 130.382812 -108.027344 144.039062 -90.28125 143.113281 L 83.769531 134.058594 C 101.507812 133.132812 115.167969 117.976562 114.246094 100.230469 L 110.898438 35.921875 C 109.976562 18.175781 94.816406 4.519531 77.070312 5.4375 L -96.972656 14.5 C -114.71875 15.425781 -128.375 30.578125 -127.453125 48.328125 Z M -91.78125 62.554688 C -92.238281 53.65625 -85.398438 46.058594 -76.503906 45.597656 L 59.941406 38.496094 C 68.835938 38.03125 76.429688 44.878906 76.894531 53.773438 L 78.570312 86.003906 C 79.035156 94.902344 72.1875 102.492188 63.292969 102.957031 L -73.148438 110.058594 C -82.042969 110.519531 -89.640625 103.679688 -90.097656 94.78125 Z M -91.78125 62.554688 " fill-opacity="1" fill-rule="evenodd"/><path fill="#ffffff" d="M -10.324219 22.066406 L -9.976562 28.765625 C -9.882812 30.617188 -8.300781 32.039062 -6.453125 31.941406 L 71.238281 27.902344 C 73.085938 27.804688 74.507812 26.226562 74.410156 24.375 L 74.0625 17.675781 C 73.964844 15.824219 72.390625 14.402344 70.539062 14.5 L -7.148438 18.542969 C -9 18.640625 -10.425781 20.214844 -10.324219 22.066406 Z M -10.324219 22.066406 " fill-opacity="0.16" fill-rule="evenodd"/><path fill="#ffffff" d="M 92.117188 100.390625 L 98.816406 100.042969 C 100.667969 99.941406 102.085938 98.367188 101.992188 96.515625 L 99.074219 40.402344 C 98.976562 38.554688 97.394531 37.128906 95.546875 37.226562 L 88.847656 37.578125 C 87 37.671875 85.574219 39.253906 85.671875 41.097656 L 88.589844 97.214844 C 88.691406 99.0625 90.269531 100.484375 92.117188 100.390625 Z M 92.117188 100.390625 " fill-opacity="0.16" fill-rule="evenodd"/><path fill="#ffffff" d="M 13.675781 119.238281 L 14.027344 125.933594 C 14.121094 127.785156 15.703125 129.210938 17.546875 129.113281 L 49.082031 127.46875 C 50.929688 127.375 52.351562 125.796875 52.257812 123.949219 L 51.90625 117.25 C 51.808594 115.398438 50.234375 113.976562 48.386719 114.074219 L 16.851562 115.714844 C 15.007812 115.808594 13.582031 117.390625 13.675781 119.238281 Z M 13.675781 119.238281 " fill-opacity="0.16" fill-rule="evenodd"/><path fill="#3d3d3d" d="M 30.542969 62.800781 L 30.84375 81.746094 C 30.925781 86.972656 35.234375 91.152344 40.464844 91.070312 L 260.164062 87.597656 C 265.390625 87.515625 269.570312 83.203125 269.488281 77.976562 L 269.1875 59.027344 C 269.105469 53.796875 264.789062 49.621094 259.566406 49.703125 L 39.867188 53.179688 C 34.636719 53.261719 30.460938 57.570312 30.542969 62.800781 Z M 30.542969 62.800781 " fill-opacity="1" fill-rule="evenodd"/><path fill="#ffffff" d="M 61.5625 66.183594 L 61.738281 77.386719 C 61.789062 80.476562 64.335938 82.949219 67.429688 82.898438 L 241.824219 80.140625 C 244.914062 80.089844 247.386719 77.542969 247.335938 74.453125 L 247.15625 63.25 C 247.109375 60.15625 244.5625 57.6875 241.46875 57.738281 L 67.074219 60.496094 C 63.984375 60.539062 61.515625 63.089844 61.5625 66.183594 Z M 61.5625 66.183594 " fill-opacity="0.16" fill-rule="evenodd"/></svg>