<svg xmlns="http://www.w3.org/2000/svg" xmlns:xlink="http://www.w3.org/1999/xlink" width="432" zoomAndPan="magnify" viewBox="0 0 324 791.999994" height="1056" preserveAspectRatio="xMidYMid meet" version="1.0"><defs><clipPath id="6281c6e58d"><path d="M 86 496.21875 L 237.976562 496.21875 L 237.976562 791.917969 L 86 791.917969 Z M 86 496.21875 " clip-rule="nonzero"/></clipPath><clipPath id="839e87dbe7"><path d="M 28.101562 199 L 295.976562 199 L 295.976562 532 L 28.101562 532 Z M 28.101562 199 " clip-rule="nonzero"/></clipPath></defs><path fill="#ffffff" d="M 99.152344 235.984375 C 96.414062 224.9375 103.152344 213.761719 114.195312 211.019531 C 125.25 208.289062 136.421875 215.023438 139.160156 226.070312 C 141.898438 237.117188 135.164062 248.292969 124.109375 251.035156 C 113.066406 253.765625 101.886719 247.035156 99.152344 235.984375 " fill-opacity="1" fill-rule="nonzero"/><path fill="#ffffff" d="M 71.660156 267.621094 C 70.050781 261.132812 74.011719 254.5625 80.5 252.953125 C 86.996094 251.34375 93.5625 255.304688 95.167969 261.792969 C 96.777344 268.289062 92.816406 274.851562 86.328125 276.460938 C 79.832031 278.070312 73.269531 274.117188 71.660156 267.621094 " fill-opacity="1" fill-rule="nonzero"/><g clip-path="url(#6281c6e58d)"><path fill="#c40707" d="M 237.738281 753.734375 C 237.738281 773.589844 218.550781 791.917969 196.035156 791.917969 L 128.042969 791.917969 C 105.519531 791.917969 86.335938 773.589844 86.335938 753.734375 L 86.335938 529.03125 C 86.335938 509.179688 105.519531 496.875 128.042969 496.875 L 196.035156 496.875 C 218.550781 496.875 237.738281 509.179688 237.738281 529.03125 L 237.738281 753.734375 " fill-opacity="1" fill-rule="nonzero"/></g><g clip-path="url(#839e87dbe7)"><path fill="#c40707" d="M 295.96875 498.0625 C 295.96875 514.582031 281.5625 531.816406 262.984375 531.816406 L 61.089844 531.816406 C 42.503906 531.816406 28.101562 514.582031 28.101562 498.0625 L 28.101562 228.871094 C 28.101562 212.355469 42.503906 199.886719 61.089844 199.886719 L 262.984375 199.886719 C 281.5625 199.886719 295.96875 212.355469 295.96875 228.871094 L 295.96875 498.0625 " fill-opacity="1" fill-rule="nonzero"/></g><path fill="#c40707" d="M 72.746094 89.292969 C 72.746094 39.980469 112.722656 0 162.039062 0 C 211.347656 0 251.324219 39.980469 251.324219 89.292969 C 251.324219 138.609375 211.347656 178.582031 162.039062 178.582031 C 112.722656 178.582031 72.746094 138.609375 72.746094 89.292969 " fill-opacity="1" fill-rule="nonzero"/></svg>